<svg width="30" height="34" viewBox="0 0 30 34" fill="none" xmlns="http://www.w3.org/2000/svg">
<path d="M28.6458 33.4243C29.887 32.2474 29.9289 30.7865 29.7928 29.4356C29.5785 27.5591 29.161 25.6852 28.5654 23.9213C25.609 15.8674 20.0264 10.1334 12.3288 6.48515C10.3684 5.56457 8.24392 4.90942 5.96163 4.06478C7.51973 2.40501 9.91714 1.90756 11.6192 0.281856C10.7166 -0.185409 9.9793 0.147205 9.36068 0.406474C6.82683 1.48022 4.28161 2.60198 1.773 3.78313C0.572342 4.36105 0.328591 4.96266 0.987385 6.03153C2.3302 8.27668 4.22732 9.8923 6.64216 10.819C6.73809 10.8418 6.91611 10.7318 7.20144 10.5964C7.16269 8.40646 4.41066 8.26207 3.87196 6.25802C7.36378 6.27327 10.3933 7.59912 13.2587 9.19042C16.2567 10.8638 19.0425 12.7913 21.3219 15.3596C23.5648 17.8686 25.1663 20.7328 26.5671 23.8032C28.0271 26.8368 28.6401 30.0249 28.6458 33.4243Z" fill="white"/>
</svg>
