<svg width="38" height="25" viewBox="0 0 38 25" fill="none" xmlns="http://www.w3.org/2000/svg">
<path d="M37.3506 3.00507C36.475 1.53572 35.059 1.17396 33.7113 1.01004C31.8335 0.806936 29.9136 0.802685 28.062 0.996265C19.5555 2.11156 12.7353 6.29846 7.48542 13.0067C6.15675 14.717 5.05097 16.6458 3.72567 18.6868C2.44865 16.8022 2.48992 14.3541 1.27774 12.3366C0.623654 13.1145 0.786204 13.9068 0.903266 14.5673C1.39426 17.2751 1.92959 20.0045 2.53091 22.7113C2.83101 24.0096 3.36439 24.3795 4.55186 23.9716C7.03711 23.1547 9.02997 21.6587 10.4645 19.5064C10.5077 19.4178 10.4395 19.22 10.3702 18.9119C8.22514 18.4687 7.47982 21.1218 5.40638 21.2072C6.1882 17.804 8.14709 15.1396 10.3289 12.6937C12.6199 10.1365 15.1121 7.84209 18.1184 6.1824C21.0587 4.54536 24.2048 3.61208 27.5078 2.9199C30.7881 2.16179 34.033 2.26402 37.3506 3.00507Z" fill="black"/>
</svg>
