<svg width="28" height="28" viewBox="0 0 28 28" fill="none" xmlns="http://www.w3.org/2000/svg">
<path fill-rule="evenodd" clip-rule="evenodd" d="M14.3708 27.4999C21.846 27.4999 27.9057 21.4402 27.9057 13.965C27.9057 6.48996 21.846 0.430176 14.3708 0.430176C6.8957 0.430176 0.835938 6.48996 0.835938 13.965C0.835938 21.4402 6.8957 27.4999 14.3708 27.4999ZM18.5933 6.7353C18.7988 6.00523 18.0903 5.57352 17.4433 6.0345L8.41082 12.4692C7.70911 12.9691 7.81948 13.965 8.57662 13.965H10.9551V13.9466H15.5907L11.8136 15.2794L10.1484 21.1948C9.9429 21.9249 10.6513 22.3566 11.2984 21.8956L20.3309 15.461C21.0326 14.9611 20.9221 13.965 20.1651 13.965H16.5582L18.5933 6.7353Z" fill="#A8FF35"/>
</svg>
